<?xml version="1.0" encoding="utf-8"?>
<!-- Generator: Adobe Illustrator 27.0.0, SVG Export Plug-In . SVG Version: 6.00 Build 0)  -->
<svg version="1.1" id="Layer_1" xmlns="http://www.w3.org/2000/svg" xmlns:xlink="http://www.w3.org/1999/xlink" x="0px" y="0px"
	 viewBox="0 0 260 260" style="enable-background:new 0 0 260 260;" xml:space="preserve">
<path d="M66.1,35.9L55,76.8l67.3,3.3l-22.9,86.7c0,0-3.5,19.8-24.4,20.9c-20.9,1.1-31.3-14.4-31.3-14.4l-4.4-6.4L1.9,198.5
	c0,0,16.9,36.4,76.7,32.2s70.2-47.6,70.2-47.6l40.2-142L66.1,35.9z"/>
<polygon points="171.7,139.2 152.3,210.8 171.7,211.9 182.1,173.7 193.8,205.4 203.2,205.9 229.9,176.5 220.3,213.2 239.2,214.8 
	258.1,142.8 239.2,142.1 203.7,183.2 189,140.1 "/>
</svg>
